{
  "accessors": [
    {
      "bufferView": 2,
      "componentType": 5126,
      "count": 2998,
      "max": [
        1.7045989036560059,
        2.8885178565979004,
        0.87607812881469727
      ],
      "min": [
        -1.7045989036560059,
        -3.0780653953552246,
        -0.84962189197540283
      ],
      "type": "VEC3"
    },
    {
      "bufferView": 2,
      "byteOffset": 35976,
      "componentType": 5126,
      "count": 2998,
      "max": [
        1,
        0.997062087059021,
        1
      ],
      "min": [
        -1,
        -1,
        -1
      ],
      "type": "VEC3"
    },
    {
      "bufferView": 1,
      "componentType": 5126,
      "count": 2998,
      "max": [
        0.75,
        0.875
      ],
      "min": [
        0,
        0
      ],
      "type": "VEC2"
    },
    {
      "bufferView": 0,
      "componentType": 5125,
      "count": 8976,
      "max": [
        2997
      ],
      "min": [
        0
      ],
      "type": "SCALAR"
    },
    {
      "bufferView": 2,
      "byteOffset": 71952,
      "componentType": 5126,
      "count": 376,
      "max": [
        1.4674075841903687,
        2.3563954830169678,
        0.031773999333381653
      ],
      "min": [
        -1.4674075841903687,
        -2.2548959255218506,
        -0.84962189197540283
      ],
      "type": "VEC3"
    },
    {
      "bufferView": 2,
      "byteOffset": 76464,
      "componentType": 5126,
      "count": 376,
      "max": [
        0.99997347593307495,
        1,
        1
      ],
      "min": [
        -0.99997347593307495,
        -1,
        -1
      ],
      "type": "VEC3"
    },
    {
      "bufferView": 1,
      "byteOffset": 23984,
      "componentType": 5126,
      "count": 376,
      "max": [
        0.5485074520111084,
        0.75000005960464478
      ],
      "min": [
        0,
        0
      ],
      "type": "VEC2"
    },
    {
      "bufferView": 0,
      "byteOffset": 35904,
      "componentType": 5125,
      "count": 1128,
      "max": [
        375
      ],
      "min": [
        0
      ],
      "type": "SCALAR"
    },
    {
      "bufferView": 2,
      "byteOffset": 80976,
      "componentType": 5126,
      "count": 114,
      "max": [
        1.6665160655975342,
        0.88355779647827148,
        0.83988922834396362
      ],
      "min": [
        -1.6665160655975342,
        -2.3297207355499268,
        0.18484783172607422
      ],
      "type": "VEC3"
    },
    {
      "bufferView": 2,
      "byteOffset": 82344,
      "componentType": 5126,
      "count": 114,
      "max": [
        0.9745868444442749,
        0.50193417072296143,
        0.96253740787506104
      ],
      "min": [
        -0.9745868444442749,
        -0.97114348411560059,
        0.023896455764770508
      ],
      "type": "VEC3"
    },
    {
      "bufferView": 1,
      "byteOffset": 26992,
      "componentType": 5126,
      "count": 114,
      "max": [
        0.75,
        0.75000005960464478
      ],
      "min": [
        0.62499988079071045,
        0.74999994039535522
      ],
      "type": "VEC2"
    },
    {
      "bufferView": 0,
      "byteOffset": 40416,
      "componentType": 5125,
      "count": 384,
      "max": [
        113
      ],
      "min": [
        0
      ],
      "type": "SCALAR"
    },
    {
      "bufferView": 2,
      "byteOffset": 83712,
      "componentType": 5126,
      "count": 24,
      "max": [
        1.2727503776550293,
        2.7077445983886719,
        0.0074928072281181812
      ],
      "min": [
        -1.2727503776550293,
        -2.9908344745635986,
        -0.65010702610015869
      ],
      "type": "VEC3"
    },
    {
      "bufferView": 2,
      "byteOffset": 84000,
      "componentType": 5126,
      "count": 24,
      "max": [
        0.5524858832359314,
        0.87893539667129517,
        0.42632600665092468
      ],
      "min": [
        -0.5524858832359314,
        -1,
        -0.31261822581291199
      ],
      "type": "VEC3"
    },
    {
      "bufferView": 1,
      "byteOffset": 27904,
      "componentType": 5126,
      "count": 24,
      "max": [
        0.61982053518295288,
        0.75
      ],
      "min": [
        0.375,
        0.49999994039535522
      ],
      "type": "VEC2"
    },
    {
      "bufferView": 0,
      "byteOffset": 41952,
      "componentType": 5125,
      "count": 72,
      "max": [
        23
      ],
      "min": [
        0
      ],
      "type": "SCALAR"
    },
    {
      "bufferView": 2,
      "byteOffset": 84288,
      "componentType": 5126,
      "count": 474,
      "max": [
        1.4040318727493286,
        2.7961030006408691,
        -0.18378335237503052
      ],
      "min": [
        -1.4040318727493286,
        -2.0512781143188477,
        -0.84962189197540283
      ],
      "type": "VEC3"
    },
    {
      "bufferView": 2,
      "byteOffset": 89976,
      "componentType": 5126,
      "count": 474,
      "max": [
        1,
        1,
        1
      ],
      "min": [
        -1,
        -1,
        -1
      ],
      "type": "VEC3"
    },
    {
      "bufferView": 1,
      "byteOffset": 28096,
      "componentType": 5126,
      "count": 474,
      "max": [
        0.42838689684867859,
        0.5
      ],
      "min": [
        0,
        0
      ],
      "type": "VEC2"
    },
    {
      "bufferView": 0,
      "byteOffset": 42240,
      "componentType": 5125,
      "count": 1452,
      "max": [
        473
      ],
      "min": [
        0
      ],
      "type": "SCALAR"
    },
    {
      "bufferView": 2,
      "byteOffset": 95664,
      "componentType": 5126,
      "count": 104,
      "max": [
        1.3407385349273682,
        -1.6539626121520996,
        0.61374193429946899
      ],
      "min": [
        -1.3407385349273682,
        -1.771825909614563,
        -0.57016998529434204
      ],
      "type": "VEC3"
    },
    {
      "bufferView": 2,
      "byteOffset": 96912,
      "componentType": 5126,
      "count": 104,
      "max": [
        0.64636600017547607,
        0.99712735414505005,
        0.98068481683731079
      ],
      "min": [
        -0.64636653661727905,
        -0.19507128000259399,
        -0.98078227043151855
      ],
      "type": "VEC3"
    },
    {
      "bufferView": 1,
      "byteOffset": 31888,
      "componentType": 5126,
      "count": 104,
      "max": [
        0.62500005960464478,
        0.75000005960464478
      ],
      "min": [
        0,
        0
      ],
      "type": "VEC2"
    },
    {
      "bufferView": 0,
      "byteOffset": 48048,
      "componentType": 5125,
      "count": 312,
      "max": [
        103
      ],
      "min": [
        0
      ],
      "type": "SCALAR"
    },
    {
      "bufferView": 2,
      "byteOffset": 98160,
      "componentType": 5126,
      "count": 974,
      "max": [
        1.4304813146591187,
        2.3045566082000732,
        -0.039139479398727417
      ],
      "min": [
        -1.4304813146591187,
        -2.1959218978881836,
        -0.99426567554473877
      ],
      "type": "VEC3"
    },
    {
      "bufferView": 2,
      "byteOffset": 109848,
      "componentType": 5126,
      "count": 974,
      "max": [
        1,
        0.9807853102684021,
        0.98078536987304688
      ],
      "min": [
        -1,
        -0.98411595821380615,
        -0.98078525066375732
      ],
      "type": "VEC3"
    },
    {
      "bufferView": 1,
      "byteOffset": 32720,
      "componentType": 5126,
      "count": 974,
      "max": [
        0,
        0
      ],
      "min": [
        0,
        0
      ],
      "type": "VEC2"
    },
    {
      "bufferView": 0,
      "byteOffset": 49296,
      "componentType": 5125,
      "count": 2952,
      "max": [
        973
      ],
      "min": [
        0
      ],
      "type": "SCALAR"
    },
    {
      "bufferView": 2,
      "byteOffset": 121536,
      "componentType": 5126,
      "count": 1382,
      "max": [
        1.4304813146591187,
        2.2333781719207764,
        -0.11031821370124817
      ],
      "min": [
        -1.4304813146591187,
        -2.1247432231903076,
        -0.92308712005615234
      ],
      "type": "VEC3"
    },
    {
      "bufferView": 2,
      "byteOffset": 138120,
      "componentType": 5126,
      "count": 1382,
      "max": [
        0.98675048351287842,
        0.9807848334312439,
        0.99052929878234863
      ],
      "min": [
        -0.98675048351287842,
        -0.98078519105911255,
        -0.9807857871055603
      ],
      "type": "VEC3"
    },
    {
      "bufferView": 1,
      "byteOffset": 40512,
      "componentType": 5126,
      "count": 1382,
      "max": [
        0,
        0
      ],
      "min": [
        0,
        0
      ],
      "type": "VEC2"
    },
    {
      "bufferView": 0,
      "byteOffset": 61104,
      "componentType": 5125,
      "count": 4140,
      "max": [
        1381
      ],
      "min": [
        0
      ],
      "type": "SCALAR"
    }
  ],
  "asset": {
    "extras": {
      "author": "Festus.Osadolor (https://sketchfab.com/Festus.Osadolor)",
      "license": "CC-BY-4.0 (http://creativecommons.org/licenses/by/4.0/)",
      "source": "https://sketchfab.com/3d-models/car-79f96e6874904898a47dddaeea52d198",
      "title": "Car"
    },
    "generator": "Sketchfab-8.12.1",
    "version": "2.0"
  },
  "bufferViews": [
    {
      "buffer": 0,
      "byteLength": 77664,
      "byteOffset": 0,
      "name": "floatBufferViews",
      "target": 34963
    },
    {
      "buffer": 0,
      "byteLength": 51568,
      "byteOffset": 77664,
      "byteStride": 8,
      "name": "floatBufferViews",
      "target": 34962
    },
    {
      "buffer": 0,
      "byteLength": 154704,
      "byteOffset": 129232,
      "byteStride": 12,
      "name": "floatBufferViews",
      "target": 34962
    }
  ],
  "buffers": [
    {
      "byteLength": 283936,
      "uri": "scene.bin"
    }
  ],
  "materials": [
    {
      "doubleSided": true,
      "emissiveFactor": [
        0,
        0,
        0
      ],
      "name": "Material",
      "pbrMetallicRoughness": {
        "baseColorFactor": [
          0.96992199999999995,
          0.0095451500000000005,
          0.00068185800000000003,
          1
        ],
        "metallicFactor": 0,
        "roughnessFactor": 0.96109685780921383
      }
    },
    {
      "doubleSided": true,
      "emissiveFactor": [
        0,
        0,
        0
      ],
      "name": "Material.006",
      "pbrMetallicRoughness": {
        "baseColorFactor": [
          0.80000000000000004,
          0.80000000000000004,
          0.80000000000000004,
          1
        ],
        "metallicFactor": 0,
        "roughnessFactor": 0.80404082057734572
      }
    },
    {
      "doubleSided": true,
      "emissiveFactor": [
        0,
        0,
        0
      ],
      "name": "classes",
      "pbrMetallicRoughness": {
        "baseColorFactor": [
          0.80000000000000004,
          0.80000000000000004,
          0.80000000000000004,
          1
        ],
        "metallicFactor": 0,
        "roughnessFactor": 0.82111456180001685
      }
    },
    {
      "doubleSided": true,
      "emissiveFactor": [
        0,
        0,
        0
      ],
      "name": "light",
      "pbrMetallicRoughness": {
        "baseColorFactor": [
          1,
          1,
          1,
          1
        ],
        "metallicFactor": 0,
        "roughnessFactor": 0.77639320225002106
      }
    },
    {
      "doubleSided": true,
      "emissiveFactor": [
        0,
        0,
        0
      ],
      "name": "Material.005",
      "pbrMetallicRoughness": {
        "baseColorFactor": [
          0,
          0,
          0,
          1
        ],
        "metallicFactor": 0,
        "roughnessFactor": 1
      }
    },
    {
      "doubleSided": true,
      "emissiveFactor": [
        0,
        0,
        0
      ],
      "name": "Material.002",
      "pbrMetallicRoughness": {
        "baseColorFactor": [
          0.10481600000000001,
          0.22658400000000001,
          0.143452,
          1
        ],
        "metallicFactor": 0,
        "roughnessFactor": 0.95230990616548983
      }
    },
    {
      "doubleSided": true,
      "emissiveFactor": [
        0,
        0,
        0
      ],
      "name": "Material.003",
      "pbrMetallicRoughness": {
        "baseColorFactor": [
          0,
          0,
          0,
          1
        ],
        "metallicFactor": 0,
        "roughnessFactor": 1
      }
    },
    {
      "doubleSided": true,
      "emissiveFactor": [
        0.0056045799999999996,
        0.0056045799999999996,
        0.0056045799999999996
      ],
      "name": "will",
      "pbrMetallicRoughness": {
        "baseColorFactor": [
          1,
          1,
          1,
          1
        ],
        "metallicFactor": 0,
        "roughnessFactor": 0.77639320225002106
      }
    }
  ],
  "meshes": [
    {
      "name": "Cube_Material_0",
      "primitives": [
        {
          "attributes": {
            "NORMAL": 1,
            "POSITION": 0,
            "TEXCOORD_0": 2
          },
          "indices": 3,
          "material": 0,
          "mode": 4
        }
      ]
    },
    {
      "name": "Cube_Material.006_0",
      "primitives": [
        {
          "attributes": {
            "NORMAL": 5,
            "POSITION": 4,
            "TEXCOORD_0": 6
          },
          "indices": 7,
          "material": 1,
          "mode": 4
        }
      ]
    },
    {
      "name": "Cube_classes_0",
      "primitives": [
        {
          "attributes": {
            "NORMAL": 9,
            "POSITION": 8,
            "TEXCOORD_0": 10
          },
          "indices": 11,
          "material": 2,
          "mode": 4
        }
      ]
    },
    {
      "name": "Cube_light_0",
      "primitives": [
        {
          "attributes": {
            "NORMAL": 13,
            "POSITION": 12,
            "TEXCOORD_0": 14
          },
          "indices": 15,
          "material": 3,
          "mode": 4
        }
      ]
    },
    {
      "name": "Cube_Material.005_0",
      "primitives": [
        {
          "attributes": {
            "NORMAL": 17,
            "POSITION": 16,
            "TEXCOORD_0": 18
          },
          "indices": 19,
          "material": 4,
          "mode": 4
        }
      ]
    },
    {
      "name": "Cube_Material.002_0",
      "primitives": [
        {
          "attributes": {
            "NORMAL": 21,
            "POSITION": 20,
            "TEXCOORD_0": 22
          },
          "indices": 23,
          "material": 5,
          "mode": 4
        }
      ]
    },
    {
      "name": "Cube_Material.003_0",
      "primitives": [
        {
          "attributes": {
            "NORMAL": 25,
            "POSITION": 24,
            "TEXCOORD_0": 26
          },
          "indices": 27,
          "material": 6,
          "mode": 4
        }
      ]
    },
    {
      "name": "Cube_will_0",
      "primitives": [
        {
          "attributes": {
            "NORMAL": 29,
            "POSITION": 28,
            "TEXCOORD_0": 30
          },
          "indices": 31,
          "material": 7,
          "mode": 4
        }
      ]
    }
  ],
  "nodes": [
    {
      "children": [
        1
      ],
      "name": "RootNode (gltf orientation matrix)",
      "rotation": [
        -0.70710678118654746,
        -0,
        -0,
        0.70710678118654757
      ]
    },
    {
      "children": [
        2
      ],
      "name": "RootNode (model correction matrix)"
    },
    {
      "children": [
        3
      ],
      "matrix": [
        1,
        0,
        0,
        0,
        0,
        0,
        1,
        0,
        0,
        -1,
        0,
        0,
        0,
        0,
        0,
        1
      ],
      "name": "7514ae1f6e7046a7b65c5597f8f28b50.fbx"
    },
    {
      "children": [
        4,
        13,
        15
      ],
      "name": "RootNode"
    },
    {
      "children": [
        5,
        6,
        7,
        8,
        9,
        10,
        11,
        12
      ],
      "matrix": [
        -72.677513647764272,
        -0.99676357834577445,
        -19.014802618680516,
        0,
        -19.00266450865411,
        -0.95603172298973327,
        72.681235482039185,
        0,
        -1.206232908701127,
        75.117705715716426,
        0.67270829967067958,
        0,
        412.4344482421875,
        1082.910888671875,
        202.82356262207031,
        1
      ],
      "name": "Cube"
    },
    {
      "mesh": 0,
      "name": "Cube_Material_0"
    },
    {
      "mesh": 1,
      "name": "Cube_Material.006_0"
    },
    {
      "mesh": 2,
      "name": "Cube_classes_0"
    },
    {
      "mesh": 3,
      "name": "Cube_light_0"
    },
    {
      "mesh": 4,
      "name": "Cube_Material.005_0"
    },
    {
      "mesh": 5,
      "name": "Cube_Material.002_0"
    },
    {
      "mesh": 6,
      "name": "Cube_Material.003_0"
    },
    {
      "mesh": 7,
      "name": "Cube_will_0"
    },
    {
      "children": [
        14
      ],
      "matrix": [
        79.138424003707996,
        -44.525618135809871,
        -41.8876971894299,
        0,
        39.353437125616843,
        89.540329195993749,
        -20.82877720251852,
        0,
        46.780523755588568,
        -0.00068255949429455202,
        88.383166511309668,
        0,
        -182.30636596679688,
        1383.32275390625,
        511.27435302734375,
        1
      ],
      "name": "Camera"
    },
    {
      "name": ""
    },
    {
      "children": [
        16
      ],
      "matrix": [
        99.75181929211962,
        -6.9919575493008033,
        0.82890140613141217,
        0,
        4.4187250110185188,
        53.001074743587736,
        -84.68388834543218,
        0,
        5.4817348703955489,
        84.510346145625277,
        53.178491678095654,
        0,
        185.92581176757812,
        1612.364990234375,
        -434.91162109375,
        1
      ],
      "name": "Sun"
    },
    {
      "children": [
        17
      ],
      "matrix": [
        1,
        0,
        0,
        0,
        0,
        2.2204460492503131e-16,
        1,
        0,
        0,
        -1,
        2.2204460492503131e-16,
        0,
        0,
        0,
        0,
        1
      ],
      "name": ""
    },
    {
      "name": ""
    }
  ],
  "scene": 0,
  "scenes": [
    {
      "name": "OSG_Scene",
      "nodes": [
        0
      ]
    }
  ]
}

